<svg width="32" height="32" viewBox="0 0 32 32" fill="none" xmlns="http://www.w3.org/2000/svg">
<path d="M16 32C19.1645 32 22.2579 31.0616 24.8891 29.3035C27.5203 27.5454 29.5711 25.0466 30.7821 22.1229C31.9931 19.1993 32.3099 15.9823 31.6926 12.8786C31.0752 9.77486 29.5513 6.92394 27.3137 4.6863C25.0761 2.44866 22.2251 0.924806 19.1214 0.307443C16.0177 -0.309921 12.8007 0.00693254 9.87706 1.21793C6.95344 2.42894 4.45459 4.4797 2.69649 7.11088C0.938383 9.74207 0 12.8355 0 16C0 20.2435 1.68571 24.3131 4.68629 27.3137C6.17203 28.7994 7.93585 29.978 9.87706 30.7821C11.8183 31.5861 13.8988 32 16 32ZM16 28.8C15.5253 28.8 15.0613 28.6592 14.6666 28.3955C14.272 28.1318 13.9643 27.757 13.7827 27.3184C13.601 26.8799 13.5535 26.3973 13.6461 25.9318C13.7387 25.4662 13.9673 25.0386 14.3029 24.7029C14.6386 24.3673 15.0662 24.1387 15.5318 24.0461C15.9973 23.9535 16.4799 24.001 16.9184 24.1827C17.357 24.3643 17.7318 24.672 17.9955 25.0666C18.2592 25.4613 18.4 25.9253 18.4 26.4C18.4 27.0365 18.1471 27.647 17.6971 28.0971C17.247 28.5471 16.6365 28.8 16 28.8ZM9.6 11.1904C9.57641 9.96116 9.91583 8.75224 10.5758 7.71491C11.2358 6.67758 12.187 5.8579 13.3104 5.35841C14.3066 4.91348 15.3988 4.72658 16.4863 4.81494C17.5738 4.90331 18.6215 5.26409 19.5328 5.86401C20.3731 6.42037 21.0702 7.16732 21.5672 8.04405C22.0643 8.92077 22.3472 9.90249 22.3931 10.9093C22.4389 11.916 22.2464 12.9194 21.8311 13.8377C21.4158 14.756 20.7895 15.5632 20.0032 16.1936C18.9005 17.0434 18.1074 18.2317 17.7456 19.576C17.6459 19.9885 17.3864 20.3444 17.0242 20.5656C16.662 20.7867 16.2269 20.8549 15.8144 20.7552C15.4019 20.6555 15.046 20.396 14.8248 20.0338C14.6037 19.6717 14.5355 19.2365 14.6352 18.824C15.156 16.7918 16.3381 14.9905 17.9952 13.704C18.3891 13.389 18.7029 12.9853 18.911 12.5259C19.1192 12.0665 19.2159 11.5644 19.1931 11.0606C19.1703 10.5567 19.0288 10.0654 18.78 9.62668C18.5312 9.18794 18.1823 8.81423 17.7616 8.536C17.2903 8.22754 16.7479 8.04499 16.186 8.00577C15.6241 7.96656 15.0615 8.07199 14.552 8.312C14.0117 8.57062 13.5579 8.98027 13.2456 9.4914C12.9332 10.0025 12.7757 10.5932 12.792 11.192C12.7644 11.5958 12.5848 11.9742 12.2893 12.2509C11.9939 12.5276 11.6045 12.682 11.1997 12.683C10.7949 12.684 10.4048 12.5316 10.108 12.2564C9.81111 11.9812 9.6296 11.6037 9.6 11.2V11.1904Z" fill="white"/>
</svg>
