<svg width="47" height="33" viewBox="0 0 47 33" fill="none" xmlns="http://www.w3.org/2000/svg">
<path d="M14.4395 16.5795C18.8123 16.5795 22.3515 13.0403 22.3515 8.66754C22.3515 4.29479 18.8123 0.755615 14.4395 0.755615C10.0668 0.755615 6.5276 4.29479 6.5276 8.66754C6.5276 13.0403 10.0668 16.5795 14.4395 16.5795ZM19.8648 18.84H19.2785C17.8092 19.5464 16.1773 19.9703 14.4395 19.9703C12.7017 19.9703 11.077 19.5464 9.60053 18.84H9.0142C4.52136 18.84 0.876221 22.4852 0.876221 26.978V29.0125C0.876221 30.8845 2.39503 32.4033 4.26705 32.4033H24.612C26.484 32.4033 28.0028 30.8845 28.0028 29.0125V26.978C28.0028 22.4852 24.3577 18.84 19.8648 18.84ZM34.7845 16.5795C38.5285 16.5795 41.5661 13.5419 41.5661 9.79782C41.5661 6.05378 38.5285 3.01617 34.7845 3.01617C31.0404 3.01617 28.0028 6.05378 28.0028 9.79782C28.0028 13.5419 31.0404 16.5795 34.7845 16.5795ZM38.1753 18.84H37.9069C36.9249 19.1791 35.8865 19.4052 34.7845 19.4052C33.6825 19.4052 32.644 19.1791 31.6621 18.84H31.3937C29.9526 18.84 28.6245 19.2568 27.4589 19.9279C29.1826 21.7858 30.2634 24.2512 30.2634 26.978V29.6907C30.2634 29.8461 30.2281 29.9944 30.221 30.1428H42.6964C44.5684 30.1428 46.0872 28.624 46.0872 26.752C46.0872 22.3792 42.5481 18.84 38.1753 18.84Z" fill="white"/>
</svg>
