<svg width="124" height="86" viewBox="0 0 124 86" fill="none" xmlns="http://www.w3.org/2000/svg">
<path d="M37.6252 42.896C49.479 42.896 59.0732 33.3018 59.0732 21.448C59.0732 9.59415 49.479 0 37.6252 0C25.7713 0 16.1772 9.59415 16.1772 21.448C16.1772 33.3018 25.7713 42.896 37.6252 42.896ZM52.3324 49.024H50.7429C46.7597 50.939 42.3361 52.088 37.6252 52.088C32.9143 52.088 28.5098 50.939 24.5074 49.024H22.918C10.7386 49.024 0.857178 58.9054 0.857178 71.0848V76.6C0.857178 81.6747 4.97443 85.792 10.0492 85.792H65.2012C70.2759 85.792 74.3932 81.6747 74.3932 76.6V71.0848C74.3932 58.9054 64.5118 49.024 52.3324 49.024ZM92.7772 42.896C102.927 42.896 111.161 34.6615 111.161 24.512C111.161 14.3625 102.927 6.128 92.7772 6.128C82.6277 6.128 74.3932 14.3625 74.3932 24.512C74.3932 34.6615 82.6277 42.896 92.7772 42.896ZM101.969 49.024H101.241C98.5796 49.9432 95.7646 50.556 92.7772 50.556C89.7898 50.556 86.9747 49.9432 84.3129 49.024H83.5852C79.6786 49.024 76.0784 50.1538 72.9186 51.9731C77.5912 57.0095 80.5212 63.6929 80.5212 71.0848V78.4384C80.5212 78.8597 80.4254 79.2618 80.4063 79.664H114.225C119.3 79.664 123.417 75.5467 123.417 70.472C123.417 58.6181 113.823 49.024 101.969 49.024Z" fill="white"/>
</svg>
