<svg width="32" height="33" viewBox="0 0 32 33" fill="none" xmlns="http://www.w3.org/2000/svg">
<path d="M0.137695 25.9505V28.6049C0.137695 30.7993 5.48376 32.5833 12.0731 32.5833C18.6624 32.5833 24.0085 30.7993 24.0085 28.6049V25.9505C21.4411 27.7595 16.7478 28.6049 12.0731 28.6049C7.3984 28.6049 2.70505 27.7595 0.137695 25.9505ZM20.03 8.71255C26.6194 8.71255 31.9654 6.92845 31.9654 4.73408C31.9654 2.53971 26.6194 0.755615 20.03 0.755615C13.4407 0.755615 8.09463 2.53971 8.09463 4.73408C8.09463 6.92845 13.4407 8.71255 20.03 8.71255ZM0.137695 19.4295V22.6372C0.137695 24.8316 5.48376 26.6156 12.0731 26.6156C18.6624 26.6156 24.0085 24.8316 24.0085 22.6372V19.4295C21.4411 21.5431 16.7416 22.6372 12.0731 22.6372C7.40461 22.6372 2.70505 21.5431 0.137695 19.4295ZM25.9977 20.1133C29.5597 19.4233 31.9654 18.1428 31.9654 16.6695V14.0151C30.5232 15.0346 28.4035 15.7308 25.9977 16.1597V20.1133ZM12.0731 10.7018C5.48376 10.7018 0.137695 12.9272 0.137695 15.6749C0.137695 18.4225 5.48376 20.6479 12.0731 20.6479C18.6624 20.6479 24.0085 18.4225 24.0085 15.6749C24.0085 12.9272 18.6624 10.7018 12.0731 10.7018ZM25.7056 14.2016C29.4354 13.5302 31.9654 12.2124 31.9654 10.7018V8.0474C29.7586 9.6077 25.9666 10.4469 21.9757 10.6458C23.8096 11.5348 25.1585 12.7283 25.7056 14.2016Z" fill="white"/>
</svg>
