<svg width="87" height="87" viewBox="0 0 87 87" fill="none" xmlns="http://www.w3.org/2000/svg">
<path d="M0 68.2994V75.495C0 81.4436 14.4923 86.28 32.355 86.28C50.2177 86.28 64.71 81.4436 64.71 75.495V68.2994C57.7503 73.2032 45.0274 75.495 32.355 75.495C19.6826 75.495 6.9597 73.2032 0 68.2994ZM53.925 21.57C71.7877 21.57 86.28 16.7336 86.28 10.785C86.28 4.8364 71.7877 0 53.925 0C36.0623 0 21.57 4.8364 21.57 10.785C21.57 16.7336 36.0623 21.57 53.925 21.57ZM0 50.6221V59.3175C0 65.2661 14.4923 70.1025 32.355 70.1025C50.2177 70.1025 64.71 65.2661 64.71 59.3175V50.6221C57.7503 56.3516 45.0105 59.3175 32.355 59.3175C19.6995 59.3175 6.9597 56.3516 0 50.6221ZM70.1025 52.4758C79.7584 50.6052 86.28 47.1338 86.28 43.14V35.9444C82.3704 38.708 76.6241 40.5954 70.1025 41.7582V52.4758ZM32.355 26.9625C14.4923 26.9625 0 32.9954 0 40.4437C0 47.8921 14.4923 53.925 32.355 53.925C50.2177 53.925 64.71 47.8921 64.71 40.4437C64.71 32.9954 50.2177 26.9625 32.355 26.9625ZM69.3105 36.4499C79.4214 34.63 86.28 31.0574 86.28 26.9625V19.7669C80.2977 23.9966 70.0182 26.2716 59.1995 26.8108C64.1707 29.2206 67.8275 32.4561 69.3105 36.4499Z" fill="white"/>
</svg>
