<svg width="66" height="66" viewBox="0 0 66 66" fill="none" xmlns="http://www.w3.org/2000/svg">
<path d="M33 66C39.5268 66 45.907 64.0646 51.3338 60.4385C56.7606 56.8124 60.9903 51.6585 63.488 45.6286C65.9857 39.5986 66.6392 32.9634 65.3659 26.562C64.0926 20.1607 60.9496 14.2806 56.3345 9.66549C51.7194 5.05036 45.8393 1.90741 39.438 0.6341C33.0366 -0.639211 26.4014 0.0142984 20.3714 2.51199C14.3415 5.00968 9.18759 9.23937 5.5615 14.6662C1.93542 20.093 0 26.4732 0 33C0 41.7521 3.47677 50.1458 9.66547 56.3345C12.7298 59.3989 16.3677 61.8296 20.3714 63.488C24.3752 65.1464 28.6664 66 33 66ZM33 59.4C32.021 59.4 31.0639 59.1097 30.2499 58.5658C29.4359 58.0219 28.8014 57.2488 28.4268 56.3443C28.0521 55.4398 27.9541 54.4445 28.1451 53.4843C28.3361 52.5241 28.8075 51.6421 29.4998 50.9498C30.1921 50.2576 31.0741 49.7861 32.0343 49.5951C32.9945 49.4041 33.9898 49.5021 34.8943 49.8768C35.7988 50.2515 36.5719 50.8859 37.1158 51.6999C37.6597 52.514 37.95 53.471 37.95 54.45C37.95 55.7628 37.4285 57.0219 36.5002 57.9502C35.5719 58.8785 34.3128 59.4 33 59.4ZM19.8 23.0802C19.7513 20.5449 20.4514 18.0515 21.8126 15.912C23.1737 13.7725 25.1356 12.0819 27.4527 11.0517C29.5074 10.1341 31.7601 9.74857 34.003 9.93082C36.2459 10.1131 38.4068 10.8572 40.2864 12.0945C42.0196 13.242 43.4573 14.7826 44.4824 16.5908C45.5075 18.3991 46.0911 20.4239 46.1857 22.5003C46.2803 24.5768 45.8831 26.6463 45.0266 28.5402C44.17 30.4341 42.8783 32.099 41.2566 33.3993C38.9823 35.152 37.3464 37.6029 36.6003 40.3755C36.3946 41.2262 35.8594 41.9604 35.1124 42.4165C34.3655 42.8726 33.4679 43.0133 32.6172 42.8076C31.7665 42.6019 31.0323 42.0667 30.5762 41.3198C30.1201 40.5728 29.9794 39.6752 30.1851 38.8245C31.2593 34.633 33.6973 30.918 37.1151 28.2645C37.9274 27.6147 38.5747 26.7822 39.004 25.8347C39.4334 24.8872 39.6327 23.8516 39.5858 22.8124C39.5388 21.7733 39.2468 20.7599 38.7337 19.855C38.2207 18.9501 37.5009 18.1793 36.6333 17.6055C35.6613 16.9693 34.5425 16.5928 33.3836 16.5119C32.2247 16.431 31.0644 16.6485 30.0135 17.1435C28.8991 17.6769 27.9632 18.5218 27.319 19.576C26.6747 20.6302 26.3498 21.8485 26.3835 23.0835C26.3266 23.9164 25.9562 24.6969 25.3468 25.2675C24.7373 25.8381 23.9343 26.1566 23.0994 26.1587C22.2646 26.1608 21.4599 25.8464 20.8477 25.2788C20.2354 24.7112 19.861 23.9326 19.8 23.1V23.0802Z" fill="white"/>
</svg>
